<?xml version="1.0" encoding="UTF-8" standalone="no"?>
<!DOCTYPE svg PUBLIC "-//W3C//DTD SVG 1.1//EN" "http://www.w3.org/Graphics/SVG/1.1/DTD/svg11.dtd">
<svg width="100%" height="100%" viewBox="0 0 360 360" version="1.1" xmlns="http://www.w3.org/2000/svg" xmlns:xlink="http://www.w3.org/1999/xlink" xml:space="preserve" xmlns:serif="http://www.serif.com/" style="fill-rule:evenodd;clip-rule:evenodd;">
    <g transform="matrix(1,0,0,1,80,80)">
        <path d="M60,80L60,140C60,153.333 66.667,160 80,160L120,160C133.333,160 140,153.333 140,140L140,80" style="fill:white;fill-rule:nonzero;stroke:rgb(29,29,31);stroke-width:2px;"/>
    </g>
    <g transform="matrix(1,0,0,1,80,80)">
        <path d="M60,80C53.333,66.667 53.333,56.667 60,50L140,50C146.667,56.667 146.667,66.667 140,80L60,80Z" style="fill:white;fill-rule:nonzero;stroke:rgb(29,29,31);stroke-width:2px;"/>
    </g>
    <g transform="matrix(1,0,0,1,80,80)">
        <circle cx="85" cy="110" r="8" style="fill:rgb(201,169,97);"/>
    </g>
    <g transform="matrix(1,0,0,1,80,80)">
        <circle cx="110" cy="100" r="10" style="fill:rgb(201,169,97);"/>
    </g>
    <g transform="matrix(1,0,0,1,80,80)">
        <circle cx="115" cy="125" r="9" style="fill:rgb(201,169,97);"/>
    </g>
    <g transform="matrix(1,0,0,1,80,80)">
        <circle cx="90" cy="130" r="7" style="fill:rgb(201,169,97);"/>
    </g>
    <g transform="matrix(1,0,0,1,80,80)">
        <path d="M70,70L75,60" style="fill:none;fill-rule:nonzero;stroke:rgb(29,29,31);stroke-width:2px;stroke-linecap:round;"/>
    </g>
    <g transform="matrix(1,0,0,1,80,80)">
        <path d="M130,70L125,60" style="fill:none;fill-rule:nonzero;stroke:rgb(29,29,31);stroke-width:2px;stroke-linecap:round;"/>
    </g>
    <g transform="matrix(0.380343,0,0,0.402077,-150.638103,48.72324)">
        <text x="598.977px" y="541.606px" style="font-family:'LaoSangamMN', 'Lao Sangam MN';font-size:68.392px;">THE NUT BAGs</text>
        <text x="1080.63px" y="541.606px" style="font-family:'Helvetica';font-size:68.392px;">™</text>
        <g transform="matrix(68.392496,0,0,68.392496,927.448333,601.295826)">
        </g>
        <text x="820.552px" y="601.296px" style="font-family:'LaoSangamMN', 'Lao Sangam MN';font-size:68.392px;">bag</text>
    </g>
</svg>
