<svg xmlns="http://www.w3.org/2000/svg" version="1.1" xmlns:xlink="http://www.w3.org/1999/xlink" width="1000" height="1000"><g clip-path="url(#SvgjsClipPath1209)"><rect width="1000" height="1000" fill="#ffffff"></rect><g transform="matrix(5,0,0,5,0,0)"><svg xmlns="http://www.w3.org/2000/svg" version="1.1" xmlns:xlink="http://www.w3.org/1999/xlink" width="200" height="200"><svg width="200" height="200" viewBox="0 0 200 200" fill="none" xmlns="http://www.w3.org/2000/svg">
    <path d="M60 80 Q50 60, 60 50 L140 50 Q150 60, 140 80 Z" stroke="#1d1d1f" stroke-width="3" fill="none"></path>
    <path d="M60 80 L60 140 Q60 160, 80 160 L120 160 Q140 160, 140 140 L140 80" stroke="#1d1d1f" stroke-width="3" fill="none"></path>
    <circle cx="85" cy="110" r="10" fill="#c9a961"></circle>
    <circle cx="110" cy="100" r="12" fill="#c9a961"></circle>
    <circle cx="115" cy="125" r="11" fill="#c9a961"></circle>
    <circle cx="90" cy="130" r="9" fill="#c9a961"></circle>
    <path d="M70 70 L75 60" stroke="#1d1d1f" stroke-width="3" stroke-linecap="round"></path>
    <path d="M130 70 L125 60" stroke="#1d1d1f" stroke-width="3" stroke-linecap="round"></path>
</svg></svg></g></g><defs><clipPath id="SvgjsClipPath1209"><rect width="1000" height="1000" x="0" y="0" rx="200" ry="200"></rect></clipPath></defs></svg>